<mxfile host="app.diagrams.net" modified="2022-06-14T09:11:41.119Z" agent="5.0 (X11)" etag="HowdZHFeyQ8Tha4zmwrf" version="17.1.3" type="github">
  <diagram id="w5VMh8vdoyv8YXjlsg2v" name="第 1 页">
    <mxGraphModel dx="784" dy="338" grid="1" gridSize="10" guides="1" tooltips="1" connect="1" arrows="1" fold="1" page="1" pageScale="1" pageWidth="850" pageHeight="1100" math="0" shadow="0">
      <root>
        <mxCell id="0" />
        <mxCell id="1" parent="0" />
        <mxCell id="5gGFXgINwKCpXytrpDTJ-1" value="" style="rounded=0;whiteSpace=wrap;html=1;" vertex="1" parent="1">
          <mxGeometry x="70" y="130" width="90" height="80" as="geometry" />
        </mxCell>
        <mxCell id="5gGFXgINwKCpXytrpDTJ-2" value="SPL" style="rounded=0;whiteSpace=wrap;html=1;" vertex="1" parent="1">
          <mxGeometry x="240" y="130" width="100" height="80" as="geometry" />
        </mxCell>
        <mxCell id="5gGFXgINwKCpXytrpDTJ-3" value="U-boot" style="rounded=0;whiteSpace=wrap;html=1;" vertex="1" parent="1">
          <mxGeometry x="420" y="130" width="100" height="80" as="geometry" />
        </mxCell>
        <mxCell id="5gGFXgINwKCpXytrpDTJ-4" value="RomCode" style="text;html=1;strokeColor=none;fillColor=none;align=center;verticalAlign=middle;whiteSpace=wrap;rounded=0;" vertex="1" parent="1">
          <mxGeometry x="85" y="160" width="60" height="30" as="geometry" />
        </mxCell>
        <mxCell id="5gGFXgINwKCpXytrpDTJ-5" value="" style="html=1;shadow=0;dashed=0;align=center;verticalAlign=middle;shape=mxgraph.arrows2.arrow;dy=0.6;dx=40;notch=0;" vertex="1" parent="1">
          <mxGeometry x="170" y="150" width="60" height="40" as="geometry" />
        </mxCell>
        <mxCell id="5gGFXgINwKCpXytrpDTJ-6" value="" style="html=1;shadow=0;dashed=0;align=center;verticalAlign=middle;shape=mxgraph.arrows2.arrow;dy=0.6;dx=40;notch=0;" vertex="1" parent="1">
          <mxGeometry x="350" y="150" width="60" height="40" as="geometry" />
        </mxCell>
      </root>
    </mxGraphModel>
  </diagram>
</mxfile>
